# xmcd CD database file
#
# Track frame offsets:
#	150
#	13230
#	30687
#	43680
#	60807
#	80417
#	90897
#	107992
#	125110
#	137150
#	155837
#	179567
#	195005
#
# Disc length: 2759 seconds
#
# Revision: 0
# Processed by: cddbd v1.5.2PL0 Copyright (c) Steve Scherf et al.
# Submitted via: CDex 1.70beta2
#
DISCID=a70ac50d
DTITLE=NITTY GRITTY DIRT BAND - NOT FACE AWAY
DYEAR=1992
DGENRE=Country
TTITLE0=Not Fade Away
TTITLE1=Little Angel
TTITLE2=Mama Tried
TTITLE3=One Good Love
TTITLE4=Losin' You
TTITLE5=I Fought The Law
TTITLE6=Mother Of The Bride
TTITLE7=Don't Underestimate Love
TTITLE8=What'll You Do About Me
TTITLE9=The Dream
TTITLE10=Mr. Bojangles
TTITLE11=Jumbalaya(on the bayou)
TTITLE12=House at Pooh Corner
EXTD=YEAR: 1992
EXTT0=
EXTT1=
EXTT2=
EXTT3=
EXTT4=
EXTT5=
EXTT6=
EXTT7=
EXTT8=
EXTT9=
EXTT10=
EXTT11=
EXTT12=
PLAYORDER=
